<?xml version='1.0' encoding='utf-8'?>
<svg xmlns="http://www.w3.org/2000/svg" width="156" height="32" viewBox="0 0 156.235 32" role="img" aria-label="AI Puffer">
  <g transform="scale(0.125)">
    <defs>
      <linearGradient id="tile" x1="0" y1="0" x2="256" y2="256" gradientUnits="userSpaceOnUse">
        <stop offset="0" stop-color="#FF8A3D" />
        <stop offset="0.28" stop-color="#F0532B" />
        <stop offset="1" stop-color="#E0451F" />
      </linearGradient>
    </defs>
    <rect id="tile-bg" width="256" height="256" rx="41" fill="url(#tile)" />
    <path id="fish" fill="#FFF4E2" d="M91.11 126.29C69.81 128.58 53.36 123.91 42.49 113.41C37.87 108.95 34.81 113.29 32.59 119.31C26.53 135.76 30.45 160.49 41.3 174.26C45.27 179.31 49.52 182.49 52.53 176.82C59.63 163.47 73.83 153.95 94.8 149.54ZM205.88 101.22A5.35 5.35 0 0 1 205.54 97.71A93.95 93.95 0 0 1 213.11 77.31A3.64 3.64 0 0 0 208.79 72.18A90.45 90.45 0 0 1 188.12 75.99A5.35 5.35 0 0 1 184.57 74.95A68.48 68.48 0 0 0 183.5 74.17A5.35 5.35 0 0 1 181.47 71.31A103.27 103.27 0 0 1 177.55 48.43A3.64 3.64 0 0 0 171.19 46.23A96.78 96.78 0 0 1 154.89 60.86A5.35 5.35 0 0 1 151.2 61.81A68.48 68.48 0 0 0 150.54 61.75A5.35 5.35 0 0 1 147.36 60.27A109.06 109.06 0 0 1 132 41.73A3.64 3.64 0 0 0 125.39 43.04A101.24 101.24 0 0 1 118.65 64.55A5.35 5.35 0 0 1 115.92 67.28L116.69 66.94A5.35 5.35 0 0 1 113.17 67.19A109.38 109.38 0 0 1 90.78 58.29A3.64 3.64 0 0 0 85.61 62.61A102.5 102.5 0 0 1 90.1 84.92A5.35 5.35 0 0 1 89.04 88.61L90.23 87.08A5.35 5.35 0 0 1 87.19 88.96A104.68 104.68 0 0 1 63.95 91.36A3.64 3.64 0 0 0 61.34 97.56A100.51 100.51 0 0 1 75.35 115.22A5.35 5.35 0 0 1 76.09 118.91A68.48 68.48 0 0 0 83.18 161.96A5.35 5.35 0 0 1 83.69 165.59A84.1 84.1 0 0 1 77.19 184.54A3.64 3.64 0 0 0 81.56 189.59A87.69 87.69 0 0 1 102.01 185.73A5.35 5.35 0 0 1 105.36 186.64A68.48 68.48 0 0 0 110.75 189.92A5.35 5.35 0 0 1 113.17 192.68A75.69 75.69 0 0 1 117.71 210.71A3.64 3.64 0 0 0 124.07 212.64A81.26 81.26 0 0 1 138.8 199.31A5.35 5.35 0 0 1 142.01 198.34A68.48 68.48 0 0 0 152.55 197.78A5.35 5.35 0 0 1 156.11 198.57A71.68 71.68 0 0 1 169.94 209.97A3.64 3.64 0 0 0 176.21 207.81A77.4 77.4 0 0 1 180.36 189A5.35 5.35 0 0 1 182.37 186.38A68.48 68.48 0 0 0 192.43 177.98A5.35 5.35 0 0 1 195.67 176.42A74.35 74.35 0 0 1 214.11 176.75A3.64 3.64 0 0 0 217.66 171.14A78.18 78.18 0 0 1 209.05 153.83A5.35 5.35 0 0 1 209 150.46A68.48 68.48 0 0 0 205.88 101.22Z" />
    <g id="face" fill="#1B1530">
      <circle id="eye" cx="162.7" cy="105.17" r="25.04" />
      <path id="mouth" d="M189.38 136.4A5.89 7.49 5 1 0 201.11 137.43A5.89 7.49 5 1 0 189.38 136.4Z" />
    </g>
    <path id="eye-highlight" fill="#FFF4E2" d="M174.02 101.93A27.75 27.75 0 0 1 180.49 98.74A0.9 0.9 0 0 0 180.49 97.04A27.75 27.75 0 0 1 174.02 93.85A27.75 27.75 0 0 1 170.83 87.38A0.9 0.9 0 0 0 169.13 87.38A27.75 27.75 0 0 1 165.94 93.85A27.75 27.75 0 0 1 159.47 97.04A0.9 0.9 0 0 0 159.47 98.74A27.75 27.75 0 0 1 165.94 101.93A27.75 27.75 0 0 1 169.13 108.4A0.9 0.9 0 0 0 170.83 108.4A27.75 27.75 0 0 1 174.02 101.93Z" />
  </g>
  <path fill="#FFF4E2" transform="translate(42 5) scale(0.1912711) translate(-437.0 -96.06)" d="M437 208.87 471.92 104.59H505.1L539.86 208.87H512.21L488.82 125.29H487.88L464.33 208.87ZM456.75 190.39V172.37H523.27V190.39ZM544.44 208.87V104.59H570.19V208.87ZM629.29 179.33V158.79H648.72Q658.36 158.79 663.1 154.91Q667.84 151.04 667.84 142.04Q667.84 133.51 663.49 129.32Q659.15 125.13 650.3 125.13H629.29V104.59H651.72Q660.73 104.59 668.47 106.72Q676.21 108.86 681.98 113.44Q687.75 118.02 690.98 124.97Q694.22 131.93 694.22 141.72Q694.22 154.2 688.62 162.58Q683.01 170.95 672.42 175.14Q661.83 179.33 646.51 179.33ZM610.17 208.87V104.59H635.76V208.87ZM725.67 211.08Q712.08 211.08 705.52 201.6Q698.96 192.12 698.96 172.53V125.45H724.56V172.22Q724.56 181.38 727.17 185.01Q729.77 188.65 734.67 188.65Q738.15 188.65 741.07 186.83Q743.99 185.01 746.21 181.3Q748.42 177.59 749.6 171.74Q750.79 165.9 750.79 157.68V125.45H776.38V171.27V208.87H754.58V176.32H753.47Q752.53 188.49 749.21 196.15Q745.89 203.82 740.04 207.45Q734.2 211.08 725.67 211.08ZM792.97 208.87V157.84H781.44V139.51L806.88 141.25V139.98Q797.24 138.88 792.34 135.4Q787.44 131.93 785.78 127.5Q784.13 123.08 784.13 119.44Q784.13 112.33 788 107.04Q791.87 101.75 798.74 98.9Q805.61 96.06 814.3 96.06Q821.41 96.06 827.02 97.96Q832.63 99.85 837.21 103.49L835.16 126.87Q830.89 123.87 826.94 122.37Q822.99 120.87 818.89 120.87Q814.15 120.87 811.07 122.92Q807.98 124.97 807.98 129.4Q807.98 131.77 809.25 133.82Q810.51 135.88 813.28 137.06Q816.04 138.25 820.78 138.25H836.58V157.84H818.25V208.87ZM847.8 208.87V157.84H836.27V139.51L861.7 141.25V139.98Q852.07 138.88 847.17 135.4Q842.27 131.93 840.61 127.5Q838.95 123.08 838.95 119.44Q838.95 112.33 842.82 107.04Q846.69 101.75 853.57 98.9Q860.44 96.06 869.13 96.06Q876.24 96.06 881.85 97.96Q887.46 99.85 892.04 103.49L889.99 126.87Q885.72 123.87 881.77 122.37Q877.82 120.87 873.71 120.87Q868.97 120.87 865.89 122.92Q862.81 124.97 862.81 129.4Q862.81 131.77 864.07 133.82Q865.34 135.88 868.1 137.06Q870.87 138.25 875.61 138.25H891.41V157.84H873.08V208.87ZM935.65 211.08Q923.8 211.08 915.82 207.69Q907.84 204.29 902.94 198.36Q898.04 192.44 895.91 184.86Q893.78 177.27 893.78 168.9Q893.78 159.89 896.07 151.68Q898.36 143.46 903.18 137.06Q908 130.66 915.66 126.95Q923.32 123.24 934.07 123.24Q944.81 123.24 952.48 126.95Q960.14 130.66 964.72 137.3Q969.3 143.93 970.64 152.62Q971.99 161.31 970.25 171.43L909.74 172.37V158.47L950.66 157.68L947.34 165.74Q948.29 158.47 947.1 153.49Q945.92 148.52 942.76 145.91Q939.6 143.3 934.07 143.3Q928.22 143.3 924.75 146.3Q921.27 149.31 919.85 154.76Q918.43 160.21 918.43 167.63Q918.43 180.43 922.69 186.28Q926.96 192.12 935.81 192.12Q939.6 192.12 942.13 191.18Q944.65 190.23 946.23 188.41Q947.81 186.59 948.45 183.99Q949.08 181.38 948.92 178.06L972.3 179.33Q972.78 184.54 971.28 190.07Q969.78 195.6 965.67 200.34Q961.56 205.08 954.21 208.08Q946.87 211.08 935.65 211.08ZM978.78 208.87V163.53V125.45H1000.9V158.63H1002.17Q1003.11 145.36 1005.88 137.69Q1008.64 130.03 1012.83 126.79Q1017.02 123.55 1022.23 123.55Q1025.08 123.55 1028.16 124.34Q1031.24 125.13 1034.24 126.87L1032.98 155.31Q1029.5 153.26 1026.18 152.23Q1022.86 151.2 1019.86 151.2Q1014.81 151.2 1011.33 154.05Q1007.85 156.89 1006.04 162.42Q1004.22 167.95 1004.22 175.85V208.87Z" />
</svg>