<?xml version="1.0" encoding="UTF-8"?>
<svg width="136" height="32" viewBox="0 0 136 32" fill="none" xmlns="http://www.w3.org/2000/svg" role="img" aria-label="AI Puffer">
    <g transform="translate(0 6)">
        <path fill="#fbb071" d="M 6.37707 2.764999 C 5.756758 2.114882 4.882539 1.709179 3.913008 1.709179 L 3.913008 4.907383 C 5 4.739141 6.043477 3.913048 6.37707 2.764999 Z"/>
        <path fill="#fae8ac" d="M 2.251601 8.862461 L 1.565234 8.347694 C 1.182617 8.060741 0.478281 7.825937 0 7.825937 L 0 9.999844 L 3.652188 11.043438 C 3.304336 10.521757 2.695664 9.434766 2.251601 8.862461 Z"/>
        <path fill="#f6d76f" d="M 6.37707 2.764999 C 5.420859 3.311054 4.583555 4.041328 3.913008 4.907343 C 3.042266 6.031914 2.453359 7.38543 2.251562 8.862461 C 2.200742 9.234414 2.173867 9.613945 2.173867 9.999844 L 13.52168 14.304337 L 10.499999 1.673906 C 8.999961 1.673906 7.592695 2.070782 6.37707 2.764999 Z"/>
        <path fill="#fbb071" d="M 19.063828 8.12754 L 18.614609 8.12754 C 17.765039 4.430626 14.454453 1.673906 10.499999 1.673906 L 10.499999 15.173906 L 19.063828 9.999844 C 19.580858 9.999844 20 9.580626 20 9.063672 C 20 8.546641 19.580858 8.12754 19.063828 8.12754 Z"/>
        <path fill="#fdf3d3" d="M -0 9.999884 L -0 12.173788 C 0.478242 12.173788 1.182617 11.939024 1.565234 11.652031 L 2.251601 11.137266 C 2.913086 10.826095 3.826133 10.478281 4.652226 10 L -0 9.999884 Z"/>
        <path fill="#ff835d" d="M 19.063828 9.999884 L 18.585117 9.999884 L 11.86957 10 C 11.86957 11.793907 14.652187 13.684765 17.968281 13.684765 C 18.250195 13.114492 18.468203 12.50711 18.614101 11.872188 L 19.063828 11.872188 C 19.580858 11.872188 20 11.45297 20 10.936016 C 20 10.419063 19.580858 9.999884 19.063828 9.999884 Z"/>
        <path fill="#ff835d" d="M 6.130429 4.677814 L 7.434766 4.677814 L 7.434766 5.982149 L 6.130429 5.982149 Z"/>
        <path fill="#ff835d" d="M 7.86957 6.416952 L 9.173906 6.416952 L 9.173906 7.721288 L 7.86957 7.721288 Z"/>
        <path fill="#ff835d" d="M 4.347813 7.286524 L 5.652149 7.286524 L 5.652149 8.590859 L 4.347813 8.590859 Z"/>
        <path fill="#f6d76f" d="M 3.913047 12.347813 L 3.913047 18.290625 C 4.882539 18.290625 5.75668 17.884962 6.376993 17.234921 C 5.608711 15.782618 4.521758 13.73914 3.913047 12.347813 Z"/>
        <path fill="#fae8ac" d="M 15.043477 10 L 2.173906 10 C 2.173906 10.385821 2.200742 10.76539 2.251563 11.137266 C 2.453359 12.614258 3.042305 13.967812 3.913047 15.092422 C 4.583555 15.958476 5.420782 16.688789 6.376993 17.234844 C 7.592618 17.9291 8.999922 18.326056 10.5 18.326056 C 13.775234 18.326056 16.60914 16.434767 17.968281 13.684765 C 16.292618 13.296523 15.043477 11.793907 15.043477 10 Z"/>
        <path fill="#8f5543" d="M 13.739141 6.416952 L 15.043477 6.416952 L 15.043477 7.721288 L 13.739141 7.721288 Z"/>
        <path fill="#8f5543" d="M 12.173906 3.808243 L 13.478242 3.808243 L 13.478242 5.112578 L 12.173906 5.112578 Z"/>
        <path fill="#ffffff" d="M 6.956523 13.147814 L 8.260859 13.147814 L 8.260859 14.452148 L 6.956523 14.452148 Z"/>
        <path fill="#ffffff" d="M 13.739141 14.017383 L 15.043477 14.017383 L 15.043477 15.321718 L 13.739141 15.321718 Z"/>
        <path fill="#ffffff" d="M 9.195663 11.40871 L 10.499999 11.40871 L 10.499999 12.713047 L 9.195663 12.713047 Z"/>
    </g>
    <text x="32" y="22" fill="#ffffff" font-family="Inter, ui-sans-serif, system-ui, -apple-system, BlinkMacSystemFont, 'Segoe UI', sans-serif" font-size="20" font-weight="750" letter-spacing="0">AI Puffer</text>
</svg>
